<svg viewBox="0 0 19 19" xmlns="http://www.w3.org/2000/svg" xmlns:xlink="http://www.w3.org/1999/xlink" width="19.000000" height="19.000000" fill="none">
	<rect id="gg:search" width="19.000000" height="19.000000" x="0.000000" y="0.000000" fill="rgb(255,255,255)" fill-opacity="0" />
	<g id="Group">
		<path id="Vector" d="M14.5026 11.4261C15.4898 10.1534 15.9551 8.5524 15.8037 6.94883C15.6524 5.34525 14.8958 3.85955 13.688 2.79399C12.4801 1.72844 10.9116 1.16305 9.30171 1.21287C7.69178 1.26269 6.16129 1.92397 5.02162 3.06217C3.88095 4.20116 3.21751 5.73224 3.1665 7.34339C3.1155 8.95455 3.68076 10.5245 4.74709 11.7334C5.81343 12.9423 7.30059 13.699 8.90551 13.8495C10.5104 13.9999 12.1123 13.5328 13.3848 12.5432L13.4188 12.5788L16.7771 15.9378C16.8506 16.0114 16.938 16.0697 17.0341 16.1095C17.1302 16.1493 17.2332 16.1698 17.3372 16.1698C17.4412 16.1698 17.5442 16.1493 17.6403 16.1095C17.7364 16.0697 17.8237 16.0114 17.8973 15.9378C17.9708 15.8643 18.0292 15.777 18.069 15.6809C18.1088 15.5848 18.1293 15.4818 18.1293 15.3777C18.1293 15.2737 18.1088 15.1707 18.069 15.0746C18.0292 14.9785 17.9708 14.8912 17.8973 14.8176L14.5382 11.4594C14.5267 11.448 14.5148 11.4369 14.5026 11.4261ZM12.8591 4.18238C13.3061 4.62213 13.6616 5.14603 13.9051 5.72386C14.1486 6.30169 14.2752 6.92201 14.2778 7.54903C14.2803 8.17606 14.1587 8.79739 13.9199 9.37718C13.6812 9.95697 13.33 10.4838 12.8866 10.9271C12.4432 11.3705 11.9164 11.7217 11.3366 11.9605C10.7568 12.1993 10.1355 12.3209 9.50848 12.3183C8.88146 12.3158 8.26114 12.1891 7.68331 11.9456C7.10548 11.7021 6.58158 11.3466 6.14183 10.8997C5.26301 10.0064 4.77276 8.8021 4.77787 7.54903C4.78297 6.29597 5.28301 5.09568 6.16907 4.20962C7.05513 3.32356 8.25542 2.82352 9.50848 2.81841C10.7616 2.81331 11.9659 3.30356 12.8591 4.18238Z" fill="rgb(255,255,255)" fill-rule="evenodd" />
		<path id="Vector" d="M15.7888 9.37231C16.0125 8.6025 16.0838 7.78841 16.0028 6.93004C15.9218 6.07172 15.6995 5.2854 15.3357 4.57107C14.9719 3.85672 14.4668 3.21437 13.8203 2.64401C13.1737 2.07367 12.4734 1.65257 11.7193 1.38073C10.9652 1.10889 10.1573 0.986303 9.29553 1.01297C8.43379 1.03963 7.63499 1.21194 6.89911 1.5299C6.16324 1.84784 5.4903 2.31143 4.88029 2.92066C4.26972 3.53033 3.80496 4.20319 3.48601 4.93923C3.16705 5.67532 2.99391 6.47459 2.9666 7.33706C2.9393 8.19952 3.06152 9.00813 3.33328 9.76291C3.60503 10.5177 4.0263 11.2186 4.59711 11.8657C5.16792 12.5128 5.81081 13.0183 6.52578 13.3821C7.24073 13.7459 8.02775 13.9681 8.88685 14.0486C9.74593 14.1292 10.5605 14.0571 11.3306 13.8325C12.0476 13.6235 12.726 13.2822 13.3658 12.8086L16.6356 16.0792C16.6822 16.1258 16.7324 16.1671 16.7861 16.2029C16.8397 16.2387 16.8968 16.2692 16.9575 16.2943C17.0183 16.3195 17.0803 16.3384 17.1435 16.3509C17.2068 16.3635 17.2714 16.3698 17.3372 16.3698C17.403 16.3698 17.4675 16.3635 17.5308 16.351C17.5941 16.3384 17.6561 16.3195 17.7168 16.2943C17.7776 16.2691 17.8349 16.2386 17.8885 16.2028C17.9422 16.1669 17.9922 16.1258 18.0387 16.0793C18.0852 16.0328 18.1263 15.9827 18.1622 15.9291C18.198 15.8755 18.2286 15.8182 18.2538 15.7574C18.2789 15.6966 18.2978 15.6346 18.3104 15.5713C18.323 15.508 18.3293 15.4435 18.3293 15.3777C18.3293 15.312 18.323 15.2475 18.3104 15.1842C18.2978 15.1209 18.279 15.0589 18.2538 14.9981C18.2286 14.9373 18.198 14.88 18.1622 14.8263C18.1263 14.7727 18.0852 14.7227 18.0387 14.6762L14.7683 11.4065C15.2404 10.7668 15.5806 10.0887 15.7888 9.37231ZM14.5026 11.4261C15.4898 10.1534 15.9551 8.5524 15.8037 6.94883C15.6524 5.34525 14.8958 3.85955 13.688 2.79399C12.4801 1.72844 10.9116 1.16305 9.30171 1.21287C7.69178 1.26269 6.16129 1.92397 5.02162 3.06217C3.88095 4.20116 3.21751 5.73224 3.1665 7.34339C3.1155 8.95455 3.68076 10.5245 4.74709 11.7334C5.81343 12.9423 7.30059 13.699 8.90551 13.8495C10.5104 13.9999 12.1123 13.5328 13.3848 12.5432L13.4188 12.5788L16.7771 15.9378C16.8506 16.0114 16.938 16.0697 17.0341 16.1095C17.1302 16.1493 17.2332 16.1698 17.3372 16.1698C17.4412 16.1698 17.5442 16.1493 17.6403 16.1095C17.7364 16.0697 17.8237 16.0114 17.8973 15.9378C17.9708 15.8643 18.0292 15.777 18.069 15.6809C18.1088 15.5848 18.1293 15.4818 18.1293 15.3777C18.1293 15.2737 18.1088 15.1707 18.069 15.0746C18.0292 14.9785 17.9708 14.8912 17.8973 14.8176L14.5382 11.4594C14.5267 11.448 14.5148 11.4369 14.5026 11.4261ZM13.9051 5.72386C13.6616 5.14603 13.3061 4.62213 12.8591 4.18238C11.9659 3.30356 10.7616 2.81331 9.50848 2.81841C8.25542 2.82352 7.05513 3.32356 6.16907 4.20962C5.28301 5.09568 4.78297 6.29597 4.77787 7.54903C4.77276 8.8021 5.26301 10.0064 6.14183 10.8997C6.58158 11.3466 7.10548 11.7021 7.68331 11.9456C8.26114 12.1891 8.88146 12.3158 9.50848 12.3183C10.1355 12.3209 10.7568 12.1993 11.3366 11.9605C11.9164 11.7217 12.4432 11.3705 12.8866 10.9271C13.33 10.4838 13.6812 9.95697 13.9199 9.37718C14.1587 8.79739 14.2803 8.17606 14.2778 7.54903C14.2752 6.92201 14.1486 6.30169 13.9051 5.72386ZM13.2937 5.01323C13.4606 5.2593 13.603 5.52207 13.7208 5.80152C13.8386 6.08108 13.9272 6.36659 13.9867 6.65805C14.0462 6.94937 14.0766 7.24664 14.0778 7.54985C14.079 7.85309 14.0511 8.15062 13.994 8.44245C13.9368 8.73435 13.8505 9.02054 13.735 9.30102C13.6195 9.58146 13.4793 9.8454 13.3143 10.0929C13.1493 10.3403 12.9596 10.5713 12.7452 10.7857C12.5307 11.0002 12.2998 11.1899 12.0524 11.3548C11.8049 11.5198 11.5409 11.6601 11.2605 11.7756C10.98 11.8911 10.6938 11.9774 10.4019 12.0345C10.1101 12.0916 9.81255 12.1196 9.5093 12.1183C9.20608 12.1171 8.90881 12.0867 8.61748 12.0273C8.32603 11.9678 8.04053 11.8791 7.76097 11.7613C7.48152 11.6436 7.21876 11.5012 6.97269 11.3342C6.72656 11.1672 6.49713 10.9756 6.2844 10.7594C5.84633 10.3141 5.51842 9.82404 5.30067 9.2891C5.08292 8.75418 4.97532 8.17443 4.97786 7.54985C4.98041 6.92525 5.09273 6.34638 5.31483 5.81324C5.53694 5.28011 5.86882 4.79271 6.31049 4.35104C6.75216 3.90937 7.23956 3.57749 7.77269 3.35538C8.30583 3.13328 8.8847 3.02096 9.5093 3.01841C10.1339 3.01587 10.7137 3.12347 11.2486 3.34123C11.7835 3.55898 12.2736 3.88689 12.7189 4.32494C12.9351 4.53767 13.1267 4.7671 13.2937 5.01323Z" fill="rgb(255,255,255)" fill-rule="evenodd" />
	</g>
</svg>
